<svg xmlns="http://www.w3.org/2000/svg" viewBox="0 0 1200 900" fill="none">
  <rect width="1200" height="900" fill="#F7F2EC"/>
  <rect x="170" y="150" width="860" height="560" rx="40" fill="#FFFFFF"/>
  <rect x="230" y="210" width="740" height="440" rx="24" fill="#F2E6DB"/>
  <path d="M230 210C270 180 310 180 350 210C390 240 430 240 470 210C510 180 550 180 590 210C630 240 670 240 710 210C750 180 790 180 830 210C870 240 910 240 950 210" stroke="#B88263" stroke-width="14" stroke-linecap="round"/>
  <path d="M230 650C270 620 310 620 350 650C390 680 430 680 470 650C510 620 550 620 590 650C630 680 670 680 710 650C750 620 790 620 830 650C870 680 910 680 950 650" stroke="#B88263" stroke-width="14" stroke-linecap="round"/>
  <text x="600" y="470" text-anchor="middle" font-size="82" font-family="Georgia, serif" fill="#8A6049">Dantel Kenar</text>
</svg>
